# xmcd
#
# Track frame offsets:
#	150
#	15276
#	30327
#	46248
#	61303
#	79326
#	98672
#	115396
#	133488
#	147885
#	169928
#	186354
#	202402
#
# Disc length: 2958
#
# Revision: 3
# Processed by: cddbd v1.5.1PL0 Copyright (c) Steve Scherf et al.
# Submitted via: VisiTrax 2.9.10.220 - For more info visit www.synapsa.com
# Normalized: r2:DSETVAR1
#
DISCID=b80b8c0d
DTITLE=Various Artist - Today's Country Hits - Disc 7
DYEAR=2002
DGENRE=Country
TTITLE0=Andy Griggs - She's More
TTITLE1=Chely Wright - Single White Female
TTITLE2=Daryl Worley - I Miss My Friend
TTITLE3=Faith Hill - This Kiss
TTITLE4=Garth Brooks - The Cowboy Song
TTITLE5=Gary Allen - The One
TTITLE6=George Straight - Write This Down
TTITLE7=Jo Dee Mesina - Bring On The Rain
TTITLE8=Kenny Chesney - How Forever Feels
TTITLE9=LeAnn Womack - I Hope You Dance
TTITLE10=Terri Clark - Now That I've Found You
TTITLE11=Tim McGraw - Something Like That
TTITLE12=Travis Tritt - Best Of Intentions
EXTD=
EXTT0=
EXTT1=
EXTT2=
EXTT3=
EXTT4=
EXTT5=
EXTT6=
EXTT7=
EXTT8=
EXTT9=
EXTT10=
EXTT11=
EXTT12=
PLAYORDER=
